<svg xmlns="http://www.w3.org/2000/svg" width="1600" height="900" viewBox="0 0 1600 900" role="img" aria-labelledby="title desc">
  <title id="title">FusionDesk social preview</title>
  <desc id="desc">FusionDesk project preview image.</desc>
  <defs>
    <linearGradient id="bg" x1="0" x2="1600" y1="0" y2="900" gradientUnits="userSpaceOnUse">
      <stop offset="0" stop-color="#0f1725" />
      <stop offset="0.52" stop-color="#152b45" />
      <stop offset="1" stop-color="#0e3f38" />
    </linearGradient>
    <linearGradient id="panel" x1="270" x2="1320" y1="200" y2="720" gradientUnits="userSpaceOnUse">
      <stop offset="0" stop-color="#1e67dc" />
      <stop offset="1" stop-color="#20b37e" />
    </linearGradient>
    <filter id="shadow" x="-20%" y="-20%" width="140%" height="140%">
      <feDropShadow dx="0" dy="28" stdDeviation="28" flood-color="#000000" flood-opacity="0.32" />
    </filter>
  </defs>
  <rect width="1600" height="900" fill="url(#bg)" />
  <g opacity="0.22">
    <path d="M0 690 C250 560, 390 760, 650 610 C910 460, 1050 650, 1600 430" fill="none" stroke="#8ed8ff" stroke-width="2" />
    <path d="M0 760 C300 640, 500 820, 780 650 C1030 500, 1180 720, 1600 560" fill="none" stroke="#74f0bf" stroke-width="2" />
  </g>
  <rect x="220" y="170" width="1160" height="560" rx="48" fill="#ffffff" opacity="0.06" />
  <rect x="270" y="210" width="520" height="340" rx="38" fill="url(#panel)" filter="url(#shadow)" />
  <rect x="318" y="258" width="424" height="244" rx="28" fill="#0f1725" opacity="0.25" />
  <circle cx="400" cy="380" r="44" fill="#ffffff" opacity="0.94" />
  <circle cx="530" cy="320" r="34" fill="#ffffff" opacity="0.94" />
  <circle cx="660" cy="408" r="44" fill="#ffffff" opacity="0.94" />
  <path d="M438 363 L496 337" stroke="#ffffff" stroke-width="20" stroke-linecap="round" opacity="0.85" />
  <path d="M562 340 L620 380" stroke="#ffffff" stroke-width="20" stroke-linecap="round" opacity="0.85" />
  <rect x="390" y="600" width="280" height="42" rx="21" fill="#8ed8ff" opacity="0.95" />
  <rect x="492" y="546" width="78" height="76" rx="18" fill="#8ed8ff" opacity="0.95" />
  <text x="850" y="310" font-family="Arial, sans-serif" font-size="78" font-weight="700" fill="#ffffff">FusionDesk</text>
  <text x="854" y="374" font-family="Arial, sans-serif" font-size="30" font-weight="500" fill="#b8c7d9">Modular remote desktop runtime</text>
  <text x="854" y="452" font-family="Arial, sans-serif" font-size="26" fill="#dfeaf6">Display streaming</text>
  <text x="854" y="500" font-family="Arial, sans-serif" font-size="26" fill="#dfeaf6">Input control</text>
  <text x="854" y="548" font-family="Arial, sans-serif" font-size="26" fill="#dfeaf6">Clipboard and file redirection</text>
  <text x="854" y="596" font-family="Arial, sans-serif" font-size="26" fill="#dfeaf6">Policy, transport, diagnostics</text>
</svg>
